<?xml version="1.0" encoding="UTF-8"?>
<svg width="700pt" height="700pt" version="1.1" viewBox="0 0 700 700" xmlns="http://www.w3.org/2000/svg" xmlns:xlink="http://www.w3.org/1999/xlink">
 <g>
  <path fill="#fff" d="m249.2 128.82v145.55c0 55.715 45.113 100.82 100.8 100.82 55.68 0 100.8-45.133 100.8-100.82v-145.55c0-55.711-45.113-100.82-100.8-100.82-55.68 0-100.8 45.133-100.8 100.82zm-22.398 0c0-68.055 55.145-123.22 123.2-123.22 68.043 0 123.2 55.125 123.2 123.22v145.55c0 68.055-55.145 123.23-123.2 123.23-68.043 0-123.2-55.129-123.2-123.23z" fill-rule="evenodd"/>
  <path fill="#fff" d="m338.8 95.246c0-6.2109 4.9688-11.246 11.199-11.246 6.1875 0 11.199 5.0508 11.199 11.246v44.707c0 6.2109-4.9688 11.246-11.199 11.246-6.1875 0-11.199-5.0508-11.199-11.246z" fill-rule="evenodd"/>
  <path fill="#fff" d="m350 529.64 82.84-82.84c4.375-4.3711 11.465-4.3711 15.84 0 4.3711 4.375 4.3711 11.465 0 15.84l-90.762 90.758c-2.1836 2.1875-5.0508 3.2812-7.918 3.2812s-5.7344-1.0938-7.918-3.2812l-91.027-91.023c-4.375-4.375-4.375-11.465 0-15.84s11.465-4.375 15.84 0z" fill-rule="evenodd"/>
 </g>
</svg>
