<?xml version="1.0" standalone="no"?>
<!DOCTYPE svg PUBLIC "-//W3C//DTD SVG 20010904//EN"
 "http://www.w3.org/TR/2001/REC-SVG-20010904/DTD/svg10.dtd">
<svg version="1.0" xmlns="http://www.w3.org/2000/svg"
 width="961.000000pt" height="961.000000pt" viewBox="0 0 961.000000 961.000000"
 preserveAspectRatio="xMidYMid meet">
<metadata>
Created by potrace 1.11, written by Peter Selinger 2001-2013
</metadata>
<g transform="translate(0.000000,961.000000) scale(0.100000,-0.100000)"
fill="#000000" stroke="none">
<path d="M2270 7382 c-109 -53 -232 -333 -226 -511 4 -98 78 -226 145 -249 39
-14 58 2 65 51 13 82 70 153 270 331 88 79 88 80 83 121 -11 99 -173 257 -275
269 -17 2 -45 -4 -62 -12z"/>
<path d="M7148 6715 c-1 -2 -27 -6 -57 -10 -172 -22 -443 -160 -706 -360 -49
-38 -101 -78 -115 -90 -97 -85 -149 -133 -250 -230 -127 -122 -230 -206 -395
-324 -98 -71 -305 -205 -345 -224 -8 -4 -51 -28 -95 -53 -174 -98 -412 -203
-605 -267 -103 -34 -321 -91 -390 -101 -241 -37 -453 -49 -544 -33 -146 26
-221 124 -212 277 20 317 406 788 811 989 131 65 156 76 245 100 41 12 75 21
75 20 0 -1 25 2 55 6 141 17 210 9 210 -24 0 -47 -126 -212 -260 -338 -65 -63
-82 -74 -132 -93 -34 -12 -36 -28 -6 -39 27 -10 114 9 263 56 236 76 385 173
401 261 12 61 -12 108 -94 191 -99 100 -201 166 -339 221 -95 37 -375 0 -563
-75 -137 -55 -310 -154 -420 -241 -82 -65 -261 -256 -322 -344 -66 -94 -100
-127 -298 -286 -125 -100 -277 -211 -425 -309 -177 -117 -219 -140 -390 -225
-157 -77 -281 -122 -412 -148 -153 -30 -238 -18 -292 43 -105 120 -47 276 304
811 191 291 205 316 205 364 0 100 -201 300 -342 341 -34 9 -67 -16 -69 -53
-5 -114 -24 -163 -149 -393 -56 -102 -204 -397 -227 -450 -75 -179 -91 -240
-87 -326 2 -36 13 -94 25 -130 132 -385 477 -628 798 -562 158 33 361 152 583
343 84 73 358 348 433 435 33 39 75 86 93 107 19 20 45 51 58 70 l25 33 -8
-45 c-4 -25 -8 -90 -7 -145 3 -247 133 -521 338 -712 128 -119 224 -165 346
-166 530 -6 1078 232 1538 667 63 60 81 73 70 51 -30 -61 -40 -123 -35 -212 6
-101 11 -126 36 -194 52 -137 149 -236 236 -243 41 -3 127 43 290 153 148 101
404 298 520 399 131 115 199 176 260 234 l70 67 6 -87 c8 -110 21 -165 66
-276 40 -101 68 -154 125 -238 43 -64 156 -184 205 -217 101 -69 241 -112 333
-104 155 15 410 266 675 668 152 229 199 334 154 343 -9 2 -35 -22 -64 -60
-79 -101 -217 -231 -323 -301 -206 -139 -405 -203 -622 -200 -138 1 -215 110
-222 313 -2 65 43 121 177 219 82 60 118 107 111 144 -25 127 -203 325 -327
366 -69 22 -77 21 -108 -14 -16 -19 -32 -42 -35 -52 -7 -19 -61 -61 -361 -279
-492 -357 -778 -539 -898 -572 -31 -9 -39 -8 -44 4 -28 73 191 365 486 647 93
89 88 85 186 168 455 382 844 526 1013 374 39 -36 35 -58 -19 -120 -61 -70
-64 -103 -8 -97 90 11 205 86 239 156 32 68 17 114 -72 211 -100 110 -239 199
-325 209 -22 3 -43 3 -45 1z"/>
<path d="M8667 5590 c-3 -11 -1 -39 5 -62 25 -109 36 -222 33 -343 -2 -71 -5
-139 -7 -150 -16 -79 -24 -108 -49 -166 -136 -332 -527 -565 -1099 -654 -19
-3 -46 -7 -60 -10 -41 -7 -158 -20 -270 -31 -41 -3 -88 -8 -105 -10 -26 -2
-173 -10 -370 -20 -83 -4 -808 -3 -930 1 -133 4 -381 15 -480 20 -191 10 -526
32 -615 40 -25 2 -83 7 -130 10 -47 3 -105 8 -130 10 -121 11 -170 16 -230 21
-124 10 -155 12 -225 19 -109 10 -153 13 -250 20 -49 4 -101 8 -115 10 -159
23 -1060 23 -1100 0 -3 -2 -37 -6 -77 -9 -353 -32 -755 -161 -1008 -324 -393
-253 -647 -685 -649 -1102 -1 -153 15 -261 51 -350 4 -8 7 -17 8 -20 7 -26 57
-118 93 -173 67 -101 139 -129 91 -36 -56 110 -21 289 82 419 81 103 273 214
459 266 132 36 327 69 485 81 179 14 758 8 1205 -12 216 -10 355 -15 525 -21
99 -3 216 -7 260 -9 555 -24 1510 -24 1870 0 28 1 100 6 160 10 61 3 117 8
125 10 8 2 58 7 110 10 52 4 102 8 111 10 16 3 72 10 159 20 25 3 56 7 70 10
14 2 43 7 65 10 23 3 50 7 60 9 46 9 193 36 223 41 67 11 300 75 397 108 248
85 433 175 642 314 362 238 586 530 687 893 17 60 21 83 41 210 12 80 13 455
1 535 -3 17 -7 55 -11 85 -15 125 -50 297 -65 315 -17 21 -37 19 -43 -5z"/>
</g>
</svg>
